<?xml version="1.0" encoding="UTF-8" standalone="no"?><svg xmlns="http://www.w3.org/2000/svg" version="1.1" xmlns:xlink="http://www.w3.org/1999/xlink" xmlns:svgjs="http://svgjs.dev/svgjs" width="1000" height="999" viewBox="0 0 1000 999"><g transform="matrix(1,0,0,1,-0.215743440233382,-0.21552769679306039)"><svg viewBox="0 0 343 343" data-background-color="#ffffff" preserveAspectRatio="xMidYMid meet" height="999" width="1000" xmlns="http://www.w3.org/2000/svg" xmlns:xlink="http://www.w3.org/1999/xlink"><g id="tight-bounds" transform="matrix(1,0,0,1,0.0740000000000407,0.07400000000001228)"><svg viewBox="0 0 342.85155851775386 342.85155851775386" height="342.85155851775386" width="342.85155851775386"><g><svg></svg></g><g><svg viewBox="0 0 342.85155851775386 342.85155851775386" height="342.85155851775386" width="342.85155851775386"><g><path d="M0 171.426c0-94.676 76.75-171.426 171.426-171.426 94.676 0 171.426 76.75 171.426 171.426 0 94.676-76.75 171.426-171.426 171.426-94.676 0-171.426-76.75-171.426-171.426zM171.426 335.212c90.457 0 163.786-73.33 163.786-163.786 0-90.457-73.33-163.786-163.786-163.787-90.457 0-163.786 73.33-163.787 163.787 0 90.457 73.33 163.786 163.787 163.786z" data-fill-palette-color="tertiary" fill="#0080ff" stroke="transparent"></path><ellipse rx="164.56874808852186" ry="164.56874808852186" cx="171.42577925887693" cy="171.42577925887693" fill="#0080ff" stroke="transparent" stroke-width="0" fill-opacity="1" data-fill-palette-color="tertiary"></ellipse></g><g transform="matrix(1,0,0,1,64.84655864529837,108.94449532112577)"><svg viewBox="0 0 213.1584412271571 124.96256787550232" height="124.96256787550232" width="213.1584412271571"><g><svg viewBox="0 0 213.1584412271571 124.96256787550232" height="124.96256787550232" width="213.1584412271571"><g><svg viewBox="0 0 213.1584412271571 124.96256787550232" height="124.96256787550232" width="213.1584412271571"><g><svg viewBox="0 0 213.1584412271571 124.96256787550232" height="124.96256787550232" width="213.1584412271571"><g id="textblocktransform"><svg viewBox="0 0 213.1584412271571 124.96256787550232" height="124.96256787550232" width="213.1584412271571" id="textblock"><g><svg viewBox="0 0 213.1584412271571 84.71274365709175" height="84.71274365709175" width="213.1584412271571"><g transform="matrix(1,0,0,1,0,0)"><svg width="213.1584412271571" viewBox="-6.800000190734863 -36.849998474121094 100.63999938964844 40" height="84.71274365709175" data-palette-color="#ffffff"><path d="M27.9-4.2L27.9-4.2Q27.9-2.25 25.25-1.6L25.25-1.6Q25.1-1.6 25.1-1.8 25.1-2 25.45-2.25L25.45-2.25Q26.45-3 26.45-3.9L26.45-3.9Q26.45-5.65 23.55-6.5L23.55-6.5Q18.7-2.1 13.4 0.53 8.1 3.15 3.45 3.15L3.45 3.15Q-0.1 3.15-0.1 0.68-0.1-1.8 3.1-3.93 6.3-6.05 10.75-7.15 15.2-8.25 18.45-8.25 21.7-8.25 23.3-7.9L23.3-7.9Q28.2-12.65 31.3-17.82 34.4-23 34.4-26.93 34.4-30.85 31.48-33 28.55-35.15 22.65-35.15 16.75-35.15 10.43-33.02 4.1-30.9-0.3-27.45-4.7-24-4.7-20.65L-4.7-20.65Q-4.7-18.75-2.35-18.75L-2.35-18.75Q1-18.75 4.25-20.43 7.5-22.1 12.75-26.5L12.75-26.5Q13.4-27.25 13.7-27.25L13.7-27.25Q14.2-27.25 14.2-26.9L14.2-26.9Q14.2-26.8 13.85-26.2L13.85-26.2Q12.55-24.9 10.2-23.05 7.85-21.2 5.85-19.95 3.85-18.7 1.33-17.7-1.2-16.7-3.25-16.7L-3.25-16.7Q-6.8-16.7-6.8-19.85L-6.8-19.85Q-6.8-23.4-1.73-27.45 3.35-31.5 10.65-34.18 17.95-36.85 24.2-36.85 30.45-36.85 33.45-34.5 36.45-32.15 36.45-27.95 36.45-23.75 33.18-18.15 29.9-12.55 24.7-7.55L24.7-7.55Q27.9-6.55 27.9-4.2ZM22.1-6.8L22.1-6.8Q20.45-7.05 17.78-7.05 15.1-7.05 11.4-6.2 7.7-5.35 5.03-3.55 2.35-1.75 2.35 0.5L2.35 0.5Q2.35 2.15 4.5 2.15L4.5 2.15Q8.3 2.15 12.98-0.3 17.65-2.75 22.1-6.8ZM21.85-32.5L22.1-32.3Q22.1-32.05 16.2-21.65 10.3-11.25 8.55-8.3L8.55-8.3Q8.25-7.65 7.45-7.3 6.65-6.95 6.23-6.95 5.8-6.95 5.8-7.18 5.8-7.4 9.3-13.4L9.3-13.4Q19.75-31.3 19.6-31.35L19.6-31.35Q19.9-31.85 20.6-32.1L20.6-32.1 21.85-32.5ZM29.55-3.35L29.55-3.35Q29.35-3.25 29.17-3.25 29-3.25 29-3.45 29-3.65 29.15-3.8L29.15-3.8Q31.2-4.95 33.65-7.55L33.65-7.55Q31.4-8.25 31.4-9.53 31.4-10.8 33.1-12.38 34.8-13.95 36.3-13.95L36.3-13.95Q37.3-13.95 37.3-12.75L37.3-12.75Q37.3-10.9 35.45-8.8L35.45-8.8Q37.85-8.4 37.85-7.65L37.85-7.65Q37.85-6.65 36.97-6.13 36.1-5.6 34.95-4.25 33.8-2.9 33.8-1.55L33.8-1.55Q33.8-1.25 34-1 34.2-0.75 34.85-0.75 35.5-0.75 37.6-1.73 39.7-2.7 41.3-3.7L41.3-3.7 42.9-4.7Q42.95-4.6 42.95-4.3 42.95-4 42.5-3.8L42.5-3.8Q35.75 0.8 33.1 0.8L33.1 0.8Q31.8 0.8 31.8-0.5L31.8-0.5Q31.8-1.55 32.52-2.7 33.25-3.85 34.12-4.6 35-5.35 35.72-6.03 36.45-6.7 36.45-6.9 36.45-7.1 35.82-7.15 35.2-7.2 34.2-7.4L34.2-7.4Q31.45-4.45 29.55-3.35ZM32.65-10.3L32.65-10.3Q32.65-9.3 34.85-8.9L34.85-8.9Q36.15-10.5 36.15-11.68 36.15-12.85 35.4-12.85 34.65-12.85 33.65-11.98 32.65-11.1 32.65-10.3ZM44.25-4.85L44.25-4.85Q41.25-4.85 41.25-6.15L41.25-6.15Q41.25-7.7 44.8-9.83 48.35-11.95 51.2-11.95L51.2-11.95Q52.65-11.95 52.65-11.05L52.65-11.05Q52.65-10.55 51.9-9.95 51.15-9.35 50.45-9 49.75-8.65 49.65-8.65L49.65-8.65Q49.35-8.65 49.25-8.9L49.25-8.9Q49.15-9.25 49.77-9.63 50.4-10 50.4-10.45 50.4-10.9 49.27-10.9 48.15-10.9 45.75-9.33 43.35-7.75 43.35-6.75L43.35-6.75Q43.35-6 45.1-6L45.1-6Q45.4-6 46.2-6.05 47-6.1 47-5.85 47-5.6 44.52-4.05 42.05-2.5 42.05-1.4L42.05-1.4Q42.05-0.15 43.67-0.15 45.3-0.15 47.35-1L47.35-1Q50.65-2.45 53.35-4.1L53.35-4.1 54.3-4.7Q54.35-4.6 54.35-4.3 54.35-4 53.9-3.8L53.9-3.8Q51.25-2 48.1-0.38 44.95 1.25 42.42 1.25 39.9 1.25 39.9-0.43 39.9-2.1 44.25-4.85ZM62.29-5.95L62.29-5.95Q61.99-5.95 61.99-6.3L61.99-6.3 62.14-6.65Q63.04-7.5 63.04-8.1L63.04-8.1Q63.04-8.85 62.24-8.85L62.24-8.85Q60.49-8.85 57.52-6.43 54.54-4 54.54-2.1L54.54-2.1Q54.54-1.3 55.59-1.3 56.64-1.3 58.02-2.18 59.39-3.05 60.37-3.93 61.34-4.8 61.44-4.8L61.44-4.8Q61.94-4.75 61.94-4.3L61.94-4.3Q61.94-4.1 61.17-3 60.39-1.9 60.39-1.25L60.39-1.25Q60.39-0.75 61.22-0.75 62.04-0.75 64.14-1.73 66.24-2.7 67.84-3.7L67.84-3.7 69.44-4.7Q69.49-4.6 69.49-4.3 69.49-4 69.04-3.8L69.04-3.8Q62.29 0.8 59.64 0.8L59.64 0.8Q58.34 0.8 58.34-0.5L58.34-0.5Q58.34-1.05 58.54-1.65L58.54-1.65Q58.19-1.25 56.47-0.43 54.74 0.4 53.39 0.4 52.04 0.4 52.04-0.85L52.04-0.85Q52.04-3.8 56.14-6.88 60.24-9.95 63.04-9.95L63.04-9.95Q64.69-9.95 64.69-8.55L64.69-8.55Q64.69-7.75 63.69-6.85 62.69-5.95 62.29-5.95ZM69.59-4.15L69.59-4.15 68.34-3.35Q68.14-3.25 67.97-3.25 67.79-3.25 67.79-3.45 67.79-3.65 67.94-3.8L67.94-3.8Q68.34-4 70.47-5.63 72.59-7.25 73.22-7.25 73.84-7.25 73.84-6.53 73.84-5.8 72.32-3.55 70.79-1.3 70.79-1.13 70.79-0.95 70.89-0.95L70.89-0.95Q71.34-0.95 76.09-4.9 80.84-8.85 81.24-8.85L81.24-8.85Q81.99-8.85 81.99-8.15L81.99-8.15Q81.99-7.7 80.27-5.08 78.54-2.45 77.99-1.5L77.99-1.5Q78.04-1.45 78.22-1.45 78.39-1.45 80.24-2.78 82.09-4.1 84.09-5.6 86.09-7.1 86.44-7.33 86.79-7.55 87.09-7.55L87.09-7.55Q87.69-7.5 87.69-6.85L87.69-6.85Q87.69-6.6 85.97-4.23 84.24-1.85 84.24-1.2L84.24-1.2Q84.24-0.75 85.32-0.75 86.39-0.75 88.49-1.73 90.59-2.7 92.19-3.7L92.19-3.7 93.79-4.7Q93.84-4.6 93.84-4.3 93.84-4 93.39-3.8L93.39-3.8Q86.64 0.8 83.99 0.8L83.99 0.8Q82.44 0.8 82.44-0.4L82.44-0.4Q82.44-1.55 83.12-2.6 83.79-3.65 84.29-4.38 84.79-5.1 84.79-5.15L84.79-5.15Q78.09-0.25 77.07 0.23 76.04 0.7 75.59 0.7 75.14 0.7 75.14-0.3L75.14-0.3 78.74-5.9Q78.14-5.65 74.84-3.15 71.54-0.65 69.69 1L69.69 1Q68.99 1.85 68.34 1.85L68.34 1.85Q67.69 1.7 67.69 1L67.69 1Q67.69 0.8 69.52-1.95 71.34-4.7 71.34-4.93 71.34-5.15 71.22-5.15 71.09-5.15 70.79-4.98 70.49-4.8 70.09-4.5 69.69-4.2 69.59-4.15Z" opacity="1" transform="matrix(1,0,0,1,0,0)" fill="#ffffff" class="undefined-text-0" data-fill-palette-color="quaternary" id="text-0"></path></svg></g></svg></g><g transform="matrix(1,0,0,1,0,104.71138932868334)"><svg viewBox="0 0 213.1584412271571 20.25117854681897" height="20.25117854681897" width="213.1584412271571"><g transform="matrix(1,0,0,1,0,0)"><svg width="213.1584412271571" viewBox="1.5 -35.45000076293945 378.3699951171875 35.95000076293945" height="20.25117854681897" data-palette-color="#ffffff"><path d="M17.38 0.5Q10.35 0.5 5.93-4.1 1.5-8.7 1.5-17.53 1.5-26.35 5.98-30.9 10.45-35.45 17.53-35.45 24.6-35.45 28.95-30.98 33.3-26.5 33.3-17.43 33.3-8.35 28.85-3.93 24.4 0.5 17.38 0.5ZM17.4-25.85Q15-25.85 13.38-23.65 11.75-21.45 11.75-17.48 11.75-13.5 13.3-11.38 14.85-9.25 17.38-9.25 19.9-9.25 21.48-11.4 23.05-13.55 23.05-17.55 23.05-21.55 21.43-23.7 19.8-25.85 17.4-25.85ZM47.5-16.35L47.5-0.3Q47.5 0.05 43.9 0.05L43.9 0.05Q38.9-0.1 38.9-0.5L38.9-0.5 38.9-16.7 37.6-16.7Q36.3-16.7 35.9-18.9L35.9-18.9Q35.8-19.55 35.8-20.2L35.8-20.2Q35.8-21.75 36.4-23.3L36.4-23.3Q37.3-25.5 39.2-25.5 41.1-25.5 42.6-24.6 44.1-23.7 44.6-22.8L44.6-22.8Q47.75-25.5 52.1-25.5 56.45-25.5 58.4-23.15 60.35-20.8 60.35-15.45L60.35-15.45 60.35-0.45Q60.35 0.15 56.07 0.15 51.8 0.15 51.8-0.45L51.8-0.45 51.8-14.9Q51.8-17.4 50.05-17.4L50.05-17.4Q49.55-17.4 48.65-16.98 47.75-16.55 47.5-16.35L47.5-16.35ZM83.5-1.35L83.5-1.35Q80.35 0.5 75.4 0.5 70.45 0.5 67.05-2.88 63.65-6.25 63.65-12.23 63.65-18.2 66.92-21.85 70.2-25.5 75.2-25.5 80.2-25.5 82.92-22.95 85.65-20.4 85.65-16.75L85.65-16.75Q85.65-8.65 76.35-8.65L76.35-8.65 72.9-8.65Q72.9-7.15 73.72-6.58 74.55-6 76.15-6L76.15-6Q79.65-6 82.8-7.6L82.8-7.6Q82.85-7.65 83.25-6.9L83.25-6.9Q84.45-4.75 84.45-3.28 84.45-1.8 83.5-1.35ZM77.25-15.8L77.25-15.8Q77.25-17.9 75.2-17.9L75.2-17.9Q74.25-17.9 73.57-17.32 72.9-16.75 72.9-15.65L72.9-15.65 72.9-14.1 75.6-14.1Q77.25-14.1 77.25-15.8ZM133.54 0.05L133.54 0.05Q129.09 0.05 129.09-0.95L129.09-0.95 128.04-21 121.94-0.7Q121.74-0.1 118.54-0.1 115.34-0.1 115.24-0.65L115.24-0.65 108.94-21.2 108.24-1.25Q108.19-0.5 106.34-0.23 104.49 0.05 103.27 0.05 102.04 0.05 100.89-0.1L100.89-0.1Q98.49-0.45 98.54-1.35L98.54-1.35 99.69-33.85Q99.69-35.05 105.79-35.05L105.79-35.05Q107.59-35.05 110.19-34.77 112.79-34.5 113.09-33.7L113.09-33.7 118.69-17.95 123.59-33.75Q124.04-35.05 130.49-35.05L130.49-35.05Q132.34-35.05 134.92-34.77 137.49-34.5 137.49-33.8L137.49-33.8 138.94-1Q138.94-0.45 136.99-0.2 135.04 0.05 133.54 0.05ZM146.79-18.15L146.79-18.15Q145.39-20.65 145.39-22.23 145.39-23.8 146.24-24.25L146.24-24.25Q149.09-25.5 154.06-25.5 159.04-25.5 161.09-23.18 163.14-20.85 163.14-16.3L163.14-16.3 163.14-8.4 164.84-8.4Q165.69-8.4 166.16-7.4 166.64-6.4 166.64-4.65 166.64-2.9 165.76-1.2 164.89 0.5 163.39 0.5L163.39 0.5Q160.69 0.5 159.04-0.95L159.04-0.95Q158.29-1.55 157.89-2.4L157.89-2.4Q155.59 0.5 150.74 0.5L150.74 0.5Q147.09 0.5 144.59-2.1 142.09-4.7 142.09-8.25L142.09-8.25Q142.09-16.4 151.84-16.4L151.84-16.4 154.59-16.4 154.59-16.9Q154.59-18.2 154.16-18.57 153.74-18.95 152.19-18.95L152.19-18.95Q150.29-18.95 146.79-18.15ZM150.79-8.95L150.79-8.95Q150.79-7.85 151.39-7.28 151.99-6.7 152.91-6.7 153.84-6.7 154.59-7.45L154.59-7.45 154.59-11.3 153.19-11.3Q150.79-11.3 150.79-8.95ZM179.94-16.35L179.94-0.3Q179.94 0.05 176.34 0.05L176.34 0.05Q171.34-0.1 171.34-0.5L171.34-0.5 171.34-16.7 170.04-16.7Q168.74-16.7 168.34-18.9L168.34-18.9Q168.24-19.55 168.24-20.2L168.24-20.2Q168.24-21.75 168.84-23.3L168.84-23.3Q169.74-25.5 171.64-25.5 173.54-25.5 175.04-24.6 176.54-23.7 177.04-22.8L177.04-22.8Q180.19-25.5 184.54-25.5 188.89-25.5 190.84-23.15 192.79-20.8 192.79-15.45L192.79-15.45 192.79-0.45Q192.79 0.15 188.51 0.15 184.24 0.15 184.24-0.45L184.24-0.45 184.24-14.9Q184.24-17.4 182.49-17.4L182.49-17.4Q181.99-17.4 181.09-16.98 180.19-16.55 179.94-16.35L179.94-16.35ZM203.48-21.3Q202.78-21.1 202.08-21.1 201.38-21.1 200.68-21.3L200.68-21.3Q199.28-21.7 199.28-22.6L199.28-22.6 198.28-33.15Q198.28-34.05 200.18-34.45L200.18-34.45Q201.13-34.65 202.08-34.65 203.03-34.65 203.98-34.45L203.98-34.45Q205.93-34.05 205.93-33.15L205.93-33.15 204.93-22.6Q204.93-21.7 203.48-21.3L203.48-21.3ZM213.13-9L213.13-9Q217.18-6.55 219.53-6.55L219.53-6.55Q221.03-6.55 221.03-7.6L221.03-7.6Q221.03-8.35 218.43-9.55L218.43-9.55Q212.18-12.1 212.18-17.9L212.18-17.9Q212.18-21.6 214.88-23.55 217.58-25.5 221.36-25.5 225.13-25.5 227.76-24.7 230.38-23.9 230.38-22.6L230.38-22.6Q230.38-21.5 229.31-19.7 228.23-17.9 227.83-17.75L227.83-17.75Q225.68-18.95 223.18-18.95L223.18-18.95Q221.83-18.95 221.83-18L221.83-18Q221.83-17.4 222.36-16.98 222.88-16.55 224.28-15.93 225.68-15.3 226.61-14.8 227.53-14.3 228.68-13.4L228.68-13.4Q231.08-11.5 231.08-8.45L231.08-8.45Q231.08-4.45 228.43-1.98 225.78 0.5 220.43 0.5L220.43 0.5Q216.88 0.5 213.98-0.7 211.08-1.9 211.08-4L211.08-4Q211.08-5.4 211.76-6.95 212.43-8.5 213.13-9ZM244.23-2.3L244.23-2.3 244.23-32.3Q244.23-33.55 244.85-34.27 245.48-35 246.48-35L246.48-35 254.83-35Q262.78-35 266.9-31 271.03-27 271.03-18.4L271.03-18.4Q271.03 0 255.33 0L255.33 0 246.78 0Q244.23 0 244.23-2.3ZM254.33-25.5L253.83-25.5 253.83-10.55Q253.83-9.5 253.98-9.22 254.13-8.95 254.88-8.95L254.88-8.95Q257.63-8.95 259.05-11 260.48-13.05 260.48-17.82 260.48-22.6 259-24.05 257.53-25.5 254.33-25.5L254.33-25.5ZM285.72-14L285.72-0.05Q285.72 0.3 281.17 0.3L281.17 0.3Q276.62 0.2 276.62-0.1L276.62-0.1 276.62-16.7 275.27-16.7Q274.47-16.7 274-17.68 273.52-18.65 273.52-20.1L273.52-20.1Q273.52-25.5 276.72-25.5L276.72-25.5Q278.97-25.5 280.47-24.13 281.97-22.75 281.97-21L281.97-21Q283.02-23.05 284.8-24.28 286.57-25.5 288.42-25.5L288.42-25.5Q291.32-25.5 291.92-24L291.92-24Q292.07-23.6 292.07-22.83 292.07-22.05 291.6-20.05 291.12-18.05 290.62-17.15 290.12-16.25 290.02-16.25 289.92-16.25 289.1-16.63 288.27-17 287.62-17L287.62-17Q285.72-17 285.72-14L285.72-14ZM313.47-1.35L313.47-1.35Q310.32 0.5 305.37 0.5 300.42 0.5 297.02-2.88 293.62-6.25 293.62-12.23 293.62-18.2 296.9-21.85 300.17-25.5 305.17-25.5 310.17-25.5 312.9-22.95 315.62-20.4 315.62-16.75L315.62-16.75Q315.62-8.65 306.32-8.65L306.32-8.65 302.87-8.65Q302.87-7.15 303.7-6.58 304.52-6 306.12-6L306.12-6Q309.62-6 312.77-7.6L312.77-7.6Q312.82-7.65 313.22-6.9L313.22-6.9Q314.42-4.75 314.42-3.28 314.42-1.8 313.47-1.35ZM307.22-15.8L307.22-15.8Q307.22-17.9 305.17-17.9L305.17-17.9Q304.22-17.9 303.55-17.32 302.87-16.75 302.87-15.65L302.87-15.65 302.87-14.1 305.57-14.1Q307.22-14.1 307.22-15.8ZM322.02-18.15L322.02-18.15Q320.62-20.65 320.62-22.23 320.62-23.8 321.47-24.25L321.47-24.25Q324.32-25.5 329.29-25.5 334.27-25.5 336.32-23.18 338.37-20.85 338.37-16.3L338.37-16.3 338.37-8.4 340.07-8.4Q340.92-8.4 341.39-7.4 341.87-6.4 341.87-4.65 341.87-2.9 340.99-1.2 340.12 0.5 338.62 0.5L338.62 0.5Q335.92 0.5 334.27-0.95L334.27-0.95Q333.52-1.55 333.12-2.4L333.12-2.4Q330.82 0.5 325.97 0.5L325.97 0.5Q322.32 0.5 319.82-2.1 317.32-4.7 317.32-8.25L317.32-8.25Q317.32-16.4 327.07-16.4L327.07-16.4 329.82-16.4 329.82-16.9Q329.82-18.2 329.39-18.57 328.97-18.95 327.42-18.95L327.42-18.95Q325.52-18.95 322.02-18.15ZM326.02-8.95L326.02-8.95Q326.02-7.85 326.62-7.28 327.22-6.7 328.14-6.7 329.07-6.7 329.82-7.45L329.82-7.45 329.82-11.3 328.42-11.3Q326.02-11.3 326.02-8.95ZM367.37-16.3L367.37-0.25Q367.37 0.1 363.09 0.1 358.82 0.1 358.82-0.35L358.82-0.35 358.82-14.9Q358.82-17.4 357.17-17.4L357.17-17.4Q356.32-17.4 354.92-16.3L354.92-16.3 354.92-0.3Q354.92 0.2 350.64 0.2 346.37 0.2 346.37-0.35L346.37-0.35 346.37-16.7 345.12-16.7Q343.47-16.7 343.47-20.15L343.47-20.15Q343.47-21.7 344.07-23.3L344.07-23.3Q344.87-25.5 346.67-25.5 348.47-25.5 350.14-24.55 351.82-23.6 352.17-22.75L352.17-22.75Q355.27-25.5 359.04-25.5 362.82-25.5 365.12-23.15L365.12-23.15Q367.82-25.5 371.62-25.5L371.62-25.5Q379.87-25.5 379.87-15.45L379.87-15.45 379.87-0.25Q379.87 0.1 375.59 0.1 371.32 0.1 371.32-0.35L371.32-0.35 371.32-14.9Q371.32-17.4 369.67-17.4L369.67-17.4Q368.77-17.4 367.37-16.3L367.37-16.3Z" opacity="1" transform="matrix(1,0,0,1,0,0)" fill="#ffffff" class="undefined-text-1" data-fill-palette-color="quaternary" id="text-1"></path></svg></g></svg></g></svg></g></svg></g><g></g></svg></g></svg></g></svg></g></svg></g><defs></defs></svg><rect width="342.85155851775386" height="342.85155851775386" fill="none" stroke="none" visibility="hidden"></rect></g></svg></g></svg>