<?xml version="1.0" encoding="UTF-8" standalone="no"?><svg xmlns="http://www.w3.org/2000/svg" version="1.1" xmlns:xlink="http://www.w3.org/1999/xlink" xmlns:svgjs="http://svgjs.dev/svgjs" width="128" height="128" viewBox="0 0 128 128"><g transform="matrix(0.8046875,0,0,0.8046875,12.612792253521128,12.612792253521128)"><svg viewBox="0 0 142 142" data-background-color="#ffffff" preserveAspectRatio="xMidYMid meet" height="128" width="128" xmlns="http://www.w3.org/2000/svg" xmlns:xlink="http://www.w3.org/1999/xlink"><g id="tight-bounds" transform="matrix(1,0,0,1,-0.15550000000000352,-0.15550000000000352)"><svg viewBox="0 0 142.31066447748242 142.31066447748242" height="142.31066447748242" width="142.31066447748242"><g><svg></svg></g><g><svg viewBox="0 0 142.31066447748242 142.31066447748242" height="142.31066447748242" width="142.31066447748242"><g><path d="M0 71.155c0-39.298 31.857-71.155 71.155-71.155 39.298 0 71.155 31.857 71.156 71.155 0 39.298-31.857 71.155-71.156 71.156-39.298 0-71.155-31.857-71.155-71.156zM71.155 135.444c35.506 0 64.288-28.783 64.289-64.289 0-35.506-28.783-64.288-64.289-64.288-35.506 0-64.288 28.783-64.288 64.288 0 35.506 28.783 64.288 64.288 64.289z" data-fill-palette-color="tertiary" fill="#000000" stroke="transparent"></path><ellipse rx="68.30911894919156" ry="68.30911894919156" cx="71.15533223874121" cy="71.15533223874121" fill="#000000" stroke="transparent" stroke-width="0" fill-opacity="1" data-fill-palette-color="tertiary"></ellipse></g><g transform="matrix(1,0,0,1,29.989108276746492,33.08252395019118)"><svg viewBox="0 0 82.33244792398943 76.14561657710006" height="76.14561657710006" width="82.33244792398943"><g><svg viewBox="0 0 82.33244792398943 76.14561657710006" height="76.14561657710006" width="82.33244792398943"><g><svg viewBox="0 0 82.33244792398943 76.14561657710006" height="76.14561657710006" width="82.33244792398943"><g id="textblocktransform"><svg viewBox="0 0 82.33244792398943 76.14561657710006" height="76.14561657710006" width="82.33244792398943" id="textblock"><g><svg viewBox="0 0 82.33244792398943 76.14561657710006" height="76.14561657710006" width="82.33244792398943"><g transform="matrix(1,0,0,1,0,0)"><svg width="82.33244792398943" viewBox="-6.8 -36.85 43.25 40" height="76.14561657710006" data-palette-color="#ffffff"><path d="M27.9-4.2L27.9-4.2Q27.9-2.25 25.25-1.6L25.25-1.6Q25.1-1.6 25.1-1.8 25.1-2 25.45-2.25L25.45-2.25Q26.45-3 26.45-3.9L26.45-3.9Q26.45-5.65 23.55-6.5L23.55-6.5Q18.7-2.1 13.4 0.53 8.1 3.15 3.45 3.15L3.45 3.15Q-0.1 3.15-0.1 0.68-0.1-1.8 3.1-3.93 6.3-6.05 10.75-7.15 15.2-8.25 18.45-8.25 21.7-8.25 23.3-7.9L23.3-7.9Q28.2-12.65 31.3-17.82 34.4-23 34.4-26.93 34.4-30.85 31.48-33 28.55-35.15 22.65-35.15 16.75-35.15 10.43-33.02 4.1-30.9-0.3-27.45-4.7-24-4.7-20.65L-4.7-20.65Q-4.7-18.75-2.35-18.75L-2.35-18.75Q1-18.75 4.25-20.43 7.5-22.1 12.75-26.5L12.75-26.5Q13.4-27.25 13.7-27.25L13.7-27.25Q14.2-27.25 14.2-26.9L14.2-26.9Q14.2-26.8 13.85-26.2L13.85-26.2Q12.55-24.9 10.2-23.05 7.85-21.2 5.85-19.95 3.85-18.7 1.33-17.7-1.2-16.7-3.25-16.7L-3.25-16.7Q-6.8-16.7-6.8-19.85L-6.8-19.85Q-6.8-23.4-1.73-27.45 3.35-31.5 10.65-34.18 17.95-36.85 24.2-36.85 30.45-36.85 33.45-34.5 36.45-32.15 36.45-27.95 36.45-23.75 33.18-18.15 29.9-12.55 24.7-7.55L24.7-7.55Q27.9-6.55 27.9-4.2ZM22.1-6.8L22.1-6.8Q20.45-7.05 17.78-7.05 15.1-7.05 11.4-6.2 7.7-5.35 5.03-3.55 2.35-1.75 2.35 0.5L2.35 0.5Q2.35 2.15 4.5 2.15L4.5 2.15Q8.3 2.15 12.98-0.3 17.65-2.75 22.1-6.8ZM21.85-32.5L22.1-32.3Q22.1-32.05 16.2-21.65 10.3-11.25 8.55-8.3L8.55-8.3Q8.25-7.65 7.45-7.3 6.65-6.95 6.23-6.95 5.8-6.95 5.8-7.18 5.8-7.4 9.3-13.4L9.3-13.4Q19.75-31.3 19.6-31.35L19.6-31.35Q19.9-31.85 20.6-32.1L20.6-32.1 21.85-32.5Z" opacity="1" transform="matrix(1,0,0,1,0,0)" fill="#ffffff" class="undefined-text-0" data-fill-palette-color="quaternary" id="text-0"></path></svg></g></svg></g></svg></g></svg></g><g></g></svg></g></svg></g></svg></g><defs></defs></svg><rect width="142.31066447748242" height="142.31066447748242" fill="none" stroke="none" visibility="hidden"></rect></g></svg></g></svg>