<?xml version="1.0" encoding="UTF-8" standalone="no"?><svg xmlns="http://www.w3.org/2000/svg" xmlns:xlink= "http://www.w3.org/1999/xlink" width="823.0452674897118" height="534.9794238683128" aria-label="A chart." style="overflow: hidden;"><defs id="_ABSTRACT_RENDERER_ID_34"></defs><rect x="0" y="0" width="823.0452674897118" height="534.9794238683128" stroke="none" stroke-width="0" fill="#ffffff"></rect><g><text text-anchor="start" x="157" y="76.9" font-family="Arial" font-size="14" font-weight="bold" stroke="none" stroke-width="0" fill="#000000">$DREAM total supply: 1,000,000,000,000</text><rect x="157" y="65" width="509" height="14" stroke="none" stroke-width="0" fill-opacity="0" fill="#ffffff"></rect></g><g><path d="M412,202L412,103A165,165,0,0,1,442.91791690664456,105.92260362976637L424.3671667626578,203.16904145190654A66,66,0,0,0,412,202" stroke="#ffffff" stroke-width="1" fill="#3366cc"></path></g><g><path d="M424.3671667626578,203.16904145190654L442.91791690664456,105.92260362976637A165,165,0,0,1,482.25358310823697,417.29646365689325L440.10143324329476,327.7185854627573A66,66,0,0,0,424.3671667626578,203.16904145190654" stroke="#ffffff" stroke-width="1" fill="#dc3912"></path><text text-anchor="start" x="536.0402095691004" y="255.65096019223415" font-family="Arial" font-size="14" stroke="none" stroke-width="0" fill="#ffffff">IDO</text></g><g><path d="M349.23026992451986,247.60487837125345L255.07567481129968,217.01219592813362A165,165,0,0,1,412,103L412,202A66,66,0,0,0,349.23026992451986,247.60487837125345" stroke="#ffffff" stroke-width="1" fill="#0099c6"></path><text text-anchor="start" x="299.4490038461562" y="179.2358392237961" font-family="Arial" font-size="14" stroke="none" stroke-width="0" fill="#ffffff">DAO Treasury</text></g><g><path d="M346.5204297132445,276.2719934152441L248.30107428311118,288.67998353811026A165,165,0,0,1,255.07567481129968,217.01219592813362L349.23026992451986,247.60487837125345A66,66,0,0,0,346.5204297132445,276.2719934152441" stroke="#ffffff" stroke-width="1" fill="#990099"></path><text text-anchor="start" x="262.11124692191925" y="261.61444010433013" font-family="Arial" font-size="14" stroke="none" stroke-width="0" fill="#ffffff">Marketing</text></g><g><path d="M363.8880705901868,313.1801089912934L291.72017647546704,380.9502724782336A165,165,0,0,1,248.30107428311118,288.67998353811026L346.5204297132445,276.2719934152441A66,66,0,0,0,363.8880705901868,313.1801089912934" stroke="#ffffff" stroke-width="1" fill="#109618"></path><text text-anchor="start" x="273.762225833001" y="326.6562160881814" font-family="Arial" font-size="14" stroke="none" stroke-width="0" fill="#ffffff">Liquidty</text></g><g><path d="M440.10143324329476,327.7185854627573L482.25358310823697,417.29646365689325A165,165,0,0,1,291.72017647546704,380.9502724782336L363.8880705901868,313.1801089912934A66,66,0,0,0,440.10143324329476,327.7185854627573" stroke="#ffffff" stroke-width="1" fill="#ff9900"></path><text text-anchor="start" x="368.7380465948814" y="410.5699809482718" font-family="Arial" font-size="14" stroke="none" stroke-width="0" fill="#ffffff">Team</text></g><g><g><g><text text-anchor="end" x="666" y="138.57367119901113" font-family="Arial" font-size="14" stroke="none" stroke-width="0" fill="#222222">Airdrop</text></g><g><text text-anchor="end" x="666" y="161.22632880098888" font-family="Arial" font-size="14" stroke="none" stroke-width="0" fill="#9e9e9e">3%</text></g></g><g><path d="M424.5,145.5L591,145.5L591,145.5L666.5,145.5" stroke="#636363" stroke-width="1" stroke-opacity="0.7" fill-opacity="1" fill="none"></path><circle cx="424.5" cy="145.5" r="2" stroke="none" stroke-width="0" fill-opacity="0.7" fill="#636363"></circle></g><g><g><text text-anchor="end" x="666" y="245.57367119901113" font-family="Arial" font-size="14" stroke="none" stroke-width="0" fill="#222222">IDO</text></g><g><text text-anchor="end" x="666" y="268.2263288009889" font-family="Arial" font-size="14" stroke="none" stroke-width="0" fill="#9e9e9e">40%</text></g></g><g><path d="M535.5,252.5L591,252.5L591,252.5L666.5,252.5" stroke="#636363" stroke-width="1" stroke-opacity="0.7" fill-opacity="1" fill="none"></path><circle cx="535.5" cy="252.5" r="2" stroke="none" stroke-width="0" fill-opacity="0.7" fill="#636363"></circle></g><g><g><text text-anchor="start" x="157" y="383.5736711990111" font-family="Arial" font-size="14" stroke="none" stroke-width="0" fill="#222222">Team</text></g><g><text text-anchor="start" x="157" y="406.2263288009889" font-family="Arial" font-size="14" stroke="none" stroke-width="0" fill="#9e9e9e">20%</text></g></g><g><path d="M389.5,390.5L233,390.5L233,390.5L157.5,390.5" stroke="#636363" stroke-width="1" stroke-opacity="0.7" fill-opacity="1" fill="none"></path><circle cx="389.5" cy="390.5" r="2" stroke="none" stroke-width="0" fill-opacity="0.7" fill="#636363"></circle></g><g><g><text text-anchor="start" x="157" y="314.5736711990111" font-family="Arial" font-size="14" stroke="none" stroke-width="0" fill="#222222">Liquidty</text></g><g><text text-anchor="start" x="157" y="337.2263288009889" font-family="Arial" font-size="14" stroke="none" stroke-width="0" fill="#9e9e9e">10%</text></g></g><g><path d="M300.5,321.5L233,321.5L233,321.5L157.5,321.5" stroke="#636363" stroke-width="1" stroke-opacity="0.7" fill-opacity="1" fill="none"></path><circle cx="300.5" cy="321.5" r="2" stroke="none" stroke-width="0" fill-opacity="0.7" fill="#636363"></circle></g><g><g><text text-anchor="start" x="157" y="249.57367119901113" font-family="Arial" font-size="14" stroke="none" stroke-width="0" fill="#222222">Marketing</text></g><g><text text-anchor="start" x="157" y="272.2263288009889" font-family="Arial" font-size="14" stroke="none" stroke-width="0" fill="#9e9e9e">7%</text></g></g><g><path d="M289.5,256.5L233,256.5L233,256.5L157.5,256.5" stroke="#636363" stroke-width="1" stroke-opacity="0.7" fill-opacity="1" fill="none"></path><circle cx="289.5" cy="256.5" r="2" stroke="none" stroke-width="0" fill-opacity="0.7" fill="#636363"></circle></g><g><g><text text-anchor="start" x="157" y="143.24734239802225" font-family="Arial" font-size="14" stroke="none" stroke-width="0" fill="#222222">DAO</text><text text-anchor="start" x="157" y="161.57367119901113" font-family="Arial" font-size="14" stroke="none" stroke-width="0" fill="#222222">Treasury</text></g><g><text text-anchor="start" x="157" y="184.22632880098888" font-family="Arial" font-size="14" stroke="none" stroke-width="0" fill="#9e9e9e">20%</text></g></g><g><path d="M339.5,168.5L233,168.5L233,168.5L157.5,168.5" stroke="#636363" stroke-width="1" stroke-opacity="0.7" fill-opacity="1" fill="none"></path><circle cx="339.5" cy="168.5" r="2" stroke="none" stroke-width="0" fill-opacity="0.7" fill="#636363"></circle></g></g><g></g></svg>