<?xml version="1.0" encoding="UTF-8" standalone="no"?><svg xmlns="http://www.w3.org/2000/svg" xmlns:xlink= "http://www.w3.org/1999/xlink" width="823.0452674897118" height="534.9794238683128" aria-label="A chart." style="overflow: hidden;"><defs id="_ABSTRACT_RENDERER_ID_28"><filter id="_ABSTRACT_RENDERER_ID_29"><feGaussianBlur in="SourceAlpha" stdDeviation="2"></feGaussianBlur><feOffset dx="1" dy="1"></feOffset><feComponentTransfer><feFuncA type="linear" slope="0.1"></feFuncA></feComponentTransfer><feMerge><feMergeNode></feMergeNode><feMergeNode in="SourceGraphic"></feMergeNode></feMerge></filter></defs><rect x="0" y="0" width="823.0452674897118" height="534.9794238683128" stroke="none" stroke-width="0" fill="#ffffff"></rect><g><text text-anchor="start" x="157" y="76.9" font-family="Arial" font-size="14" font-weight="bold" stroke="none" stroke-width="0" fill="#000000">$DREAM total supply:1,000,000,000,000</text><rect x="157" y="65" width="509" height="14" stroke="none" stroke-width="0" fill-opacity="0" fill="#ffffff"></rect></g><g><path d="M412,202L412,103A165,165,0,0,1,508.98456662825805,401.4878040718663L450.7938266513032,321.39512162874655A66,66,0,0,0,412,202" stroke="#ffffff" stroke-width="1" fill="#3366cc"></path><text text-anchor="start" x="529.7213312525625" y="230.5885246063727" font-family="Arial" font-size="14" stroke="none" stroke-width="0" fill="#ffffff">IDO</text></g><g><path d="M349.23026992451986,247.60487837125345L255.07567481129968,217.01219592813362A165,165,0,0,1,412,103L412,202A66,66,0,0,0,349.23026992451986,247.60487837125345" stroke="#ffffff" stroke-width="1" fill="#990099"></path><text text-anchor="start" x="309.2164558371242" y="169.2810909052247" font-family="Arial" font-size="14" stroke="none" stroke-width="0" fill="#ffffff">Treasury</text></g><g><path d="M349.23026992451986,288.39512162874655L255.07567481129968,318.98780407186644A165,165,0,0,1,255.07567481129968,217.01219592813362L349.23026992451986,247.60487837125345A66,66,0,0,0,349.23026992451986,288.39512162874655" stroke="#ffffff" stroke-width="1" fill="#109618"></path><text text-anchor="start" x="261.1623389202816" y="272.90000000000003" font-family="Arial" font-size="14" stroke="none" stroke-width="0" fill="#ffffff">Marketing</text></g><g><path d="M373.2061733486968,321.39512162874655L315.01543337174195,401.4878040718663A165,165,0,0,1,255.07567481129968,318.98780407186644L349.23026992451986,288.39512162874655A66,66,0,0,0,373.2061733486968,321.39512162874655" stroke="#ffffff" stroke-width="1" fill="#ff9900"></path><text text-anchor="start" x="285.06647884336456" y="347.68558067763524" font-family="Arial" font-size="14" stroke="none" stroke-width="0" fill="#ffffff">Liquidty</text></g><g><path d="M450.7938266513032,321.39512162874655L508.98456662825805,401.4878040718663A165,165,0,0,1,315.0154333717419,401.4878040718663L373.2061733486968,321.3951216287465A66,66,0,0,0,450.7938266513032,321.39512162874655" stroke="#ffffff" stroke-width="1" fill="#dc3912"></path><text text-anchor="start" x="395" y="415.9399946680884" font-family="Arial" font-size="14" stroke="none" stroke-width="0" fill="#ffffff">Team</text></g><g><g><g><text text-anchor="end" x="666" y="223.57367119901113" font-family="Arial" font-size="14" stroke="none" stroke-width="0" fill="#222222">IDO</text></g><g><text text-anchor="end" x="666" y="246.22632880098888" font-family="Arial" font-size="14" stroke="none" stroke-width="0" fill="#9e9e9e">40%</text></g></g><g><path d="M530.5,230.5L591,230.5L591,230.5L666.5,230.5" stroke="#636363" stroke-width="1" stroke-opacity="0.7" fill-opacity="1" fill="none"></path><circle cx="530.5" cy="230.5" r="2" stroke="none" stroke-width="0" fill-opacity="0.7" fill="#636363"></circle></g><g><g><text text-anchor="start" x="157" y="385.5736711990111" font-family="Arial" font-size="14" stroke="none" stroke-width="0" fill="#222222">Team</text></g><g><text text-anchor="start" x="157" y="408.2263288009889" font-family="Arial" font-size="14" stroke="none" stroke-width="0" fill="#9e9e9e">20%</text></g></g><g><path d="M412.5,392.5L233,392.5L233,392.5L157.5,392.5" stroke="#636363" stroke-width="1" stroke-opacity="0.7" fill-opacity="1" fill="none"></path><circle cx="412.5" cy="392.5" r="2" stroke="none" stroke-width="0" fill-opacity="0.7" fill="#636363"></circle></g><g><g><text text-anchor="start" x="157" y="334.5736711990111" font-family="Arial" font-size="14" stroke="none" stroke-width="0" fill="#222222">Liquidty</text></g><g><text text-anchor="start" x="157" y="357.2263288009889" font-family="Arial" font-size="14" stroke="none" stroke-width="0" fill="#9e9e9e">10%</text></g></g><g><path d="M312.5,341.5L233,341.5L233,341.5L157.5,341.5" stroke="#636363" stroke-width="1" stroke-opacity="0.7" fill-opacity="1" fill="none"></path><circle cx="312.5" cy="341.5" r="2" stroke="none" stroke-width="0" fill-opacity="0.7" fill="#636363"></circle></g><g><g><text text-anchor="start" x="157" y="261.57367119901113" font-family="Arial" font-size="14" stroke="none" stroke-width="0" fill="#222222">Marketing</text></g><g><text text-anchor="start" x="157" y="284.2263288009889" font-family="Arial" font-size="14" stroke="none" stroke-width="0" fill="#9e9e9e">10%</text></g></g><g><path d="M288.5,268.5L233,268.5L233,268.5L157.5,268.5" stroke="#636363" stroke-width="1" stroke-opacity="0.7" fill-opacity="1" fill="none"></path><circle cx="288.5" cy="268.5" r="2" stroke="none" stroke-width="0" fill-opacity="0.7" fill="#636363"></circle></g><g><g><text text-anchor="start" x="157" y="161.57367119901113" font-family="Arial" font-size="14" stroke="none" stroke-width="0" fill="#222222">Treasury</text></g><g><text text-anchor="start" x="157" y="184.22632880098888" font-family="Arial" font-size="14" stroke="none" stroke-width="0" fill="#9e9e9e">20%</text></g></g><g><path d="M339.5,168.5L233,168.5L233,168.5L157.5,168.5" stroke="#636363" stroke-width="1" stroke-opacity="0.7" fill-opacity="1" fill="none"></path><circle cx="339.5" cy="168.5" r="2" stroke="none" stroke-width="0" fill-opacity="0.7" fill="#636363"></circle></g></g><g></g></svg>