<?xml version="1.0" encoding="UTF-8" standalone="no"?><svg xmlns="http://www.w3.org/2000/svg" xmlns:xlink= "http://www.w3.org/1999/xlink" width="600" height="390" aria-label="A chart." style="overflow: hidden;"><defs id="_ABSTRACT_RENDERER_ID_9"></defs><rect x="0" y="0" width="600" height="390" stroke="none" stroke-width="0" fill="#ffffff"></rect><g><text text-anchor="start" x="115" y="52.05" font-family="Arial" font-size="13" font-weight="bold" stroke="none" stroke-width="0" fill="#000000">Tokenomics</text><rect x="115" y="41" width="371" height="13" stroke="none" stroke-width="0" fill-opacity="0" fill="#ffffff"></rect></g><g><path d="M301,148L301,76A120,120,0,0,1,371.5342302750968,293.08203932499373L329.2136921100387,234.8328157299975A48,48,0,0,0,301,148" stroke="#ffffff" stroke-width="1" fill="#3366cc"></path><text text-anchor="start" x="378.92019553054996" y="171.49561723112663" font-family="Arial" font-size="13" stroke="none" stroke-width="0" fill="#ffffff">IDO</text></g><g><path d="M262.1671842700025,167.78630788996128L203.9179606750063,125.46576972490324A120,120,0,0,1,301,76L301,148A48,48,0,0,0,262.1671842700025,167.78630788996128" stroke="#ffffff" stroke-width="1" fill="#0099c6"></path><text text-anchor="start" x="235.64441199404" y="122.32900427641789" font-family="Arial" font-size="13" stroke="none" stroke-width="0" fill="#ffffff">Treasury</text></g><g><path d="M253,196L181,196.00000000000003A120,120,0,0,1,203.9179606750063,125.46576972490324L262.1671842700025,167.78630788996128A48,48,0,0,0,253,196" stroke="#ffffff" stroke-width="1" fill="#990099"></path></g><g><path d="M262.1671842700025,224.21369211003872L203.91796067500633,266.5342302750968A120,120,0,0,1,181,196.00000000000003L253,196A48,48,0,0,0,262.1671842700025,224.21369211003872" stroke="#ffffff" stroke-width="1" fill="#109618"></path><text text-anchor="start" x="199.0013379586458" y="226.38068112139933" font-family="Arial" font-size="13" stroke="none" stroke-width="0" fill="#ffffff">Liquidty</text></g><g><path d="M272.7863078899613,234.8328157299975L230.46576972490323,293.08203932499373A120,120,0,0,1,203.91796067500633,266.5342302750968L262.1671842700025,224.21369211003872A48,48,0,0,0,272.7863078899613,234.8328157299975" stroke="#ffffff" stroke-width="1" fill="#ff9900"></path></g><g><path d="M329.2136921100387,234.8328157299975L371.5342302750968,293.08203932499373A120,120,0,0,1,230.46576972490317,293.0820393249937L272.7863078899613,234.83281572999746A48,48,0,0,0,329.2136921100387,234.8328157299975" stroke="#ffffff" stroke-width="1" fill="#dc3912"></path><text text-anchor="start" x="285" y="299.84697538209684" font-family="Arial" font-size="13" stroke="none" stroke-width="0" fill="#ffffff">Team</text></g><g><g><g><text text-anchor="end" x="486" y="162.03269468479607" font-family="Arial" font-size="13" stroke="none" stroke-width="0" fill="#222222">IDO</text></g><g><text text-anchor="end" x="486" y="183.06730531520395" font-family="Arial" font-size="13" stroke="none" stroke-width="0" fill="#9e9e9e">40%</text></g></g><g><path d="M387.5,168.5L434,168.5L434,168.5L486.5,168.5" stroke="#636363" stroke-width="1" stroke-opacity="0.7" fill-opacity="1" fill="none"></path><circle cx="387.5" cy="168.5" r="2" stroke="none" stroke-width="0" fill-opacity="0.7" fill="#636363"></circle></g><g><g><text text-anchor="start" x="115" y="290.03269468479607" font-family="Arial" font-size="13" stroke="none" stroke-width="0" fill="#222222">Team</text></g><g><text text-anchor="start" x="115" y="311.06730531520395" font-family="Arial" font-size="13" stroke="none" stroke-width="0" fill="#9e9e9e">20%</text></g></g><g><path d="M301.5,286.5L168,286.5L168,296.5L115.5,296.5" stroke="#636363" stroke-width="1" stroke-opacity="0.7" fill-opacity="1" fill="none"></path><circle cx="301.5" cy="286.5" r="2" stroke="none" stroke-width="0" fill-opacity="0.7" fill="#636363"></circle></g><g><g><text text-anchor="start" x="115" y="252.03269468479607" font-family="Arial" font-size="13" stroke="none" stroke-width="0" fill="#222222">PreIDO</text></g><g><text text-anchor="start" x="115" y="273.06730531520395" font-family="Arial" font-size="13" stroke="none" stroke-width="0" fill="#9e9e9e">5%</text></g></g><g><path d="M237.5,260.5L168,260.5L168,258.5L115.5,258.5" stroke="#636363" stroke-width="1" stroke-opacity="0.7" fill-opacity="1" fill="none"></path><circle cx="237.5" cy="260.5" r="2" stroke="none" stroke-width="0" fill-opacity="0.7" fill="#636363"></circle></g><g><g><text text-anchor="start" x="115" y="210.03269468479607" font-family="Arial" font-size="13" stroke="none" stroke-width="0" fill="#222222">Liquidty</text></g><g><text text-anchor="start" x="115" y="231.06730531520395" font-family="Arial" font-size="13" stroke="none" stroke-width="0" fill="#9e9e9e">10%</text></g></g><g><path d="M214.5,218.5L168,218.5L168,216.5L115.5,216.5" stroke="#636363" stroke-width="1" stroke-opacity="0.7" fill-opacity="1" fill="none"></path><circle cx="214.5" cy="218.5" r="2" stroke="none" stroke-width="0" fill-opacity="0.7" fill="#636363"></circle></g><g><g><text text-anchor="start" x="115" y="162.03269468479607" font-family="Arial" font-size="13" stroke="none" stroke-width="0" fill="#222222">Marke…</text><rect x="115" y="150.98269468479606" width="49" height="13" stroke="none" stroke-width="0" fill-opacity="0" fill="#ffffff"></rect></g><g><text text-anchor="start" x="115" y="183.06730531520395" font-family="Arial" font-size="13" stroke="none" stroke-width="0" fill="#9e9e9e">10%</text></g></g><g><path d="M215.5,168.5L168,168.5L168,168.5L115.5,168.5" stroke="#636363" stroke-width="1" stroke-opacity="0.7" fill-opacity="1" fill="none"></path><circle cx="215.5" cy="168.5" r="2" stroke="none" stroke-width="0" fill-opacity="0.7" fill="#636363"></circle></g><g><g><text text-anchor="start" x="115" y="110.03269468479604" font-family="Arial" font-size="13" stroke="none" stroke-width="0" fill="#222222">Treasury</text></g><g><text text-anchor="start" x="115" y="131.06730531520395" font-family="Arial" font-size="13" stroke="none" stroke-width="0" fill="#9e9e9e">15%</text></g></g><g><path d="M260.5,116.5L168,116.5L168,116.5L115.5,116.5" stroke="#636363" stroke-width="1" stroke-opacity="0.7" fill-opacity="1" fill="none"></path><circle cx="260.5" cy="116.5" r="2" stroke="none" stroke-width="0" fill-opacity="0.7" fill="#636363"></circle></g></g><g></g></svg>